<?xml version="1.0" encoding="UTF-8"?>
<svg version="1.1" xmlns="http://www.w3.org/2000/svg" width="516" height="512">
<path d="M0 0 C1.27501084 -0.00445784 2.55002168 -0.00891569 3.86366922 -0.01350862 C5.27640554 -0.01341933 6.68914187 -0.01322949 8.10187817 -0.01294994 C9.60446826 -0.01625041 11.10705746 -0.01997636 12.60964555 -0.02409142 C16.74043634 -0.03409922 20.8712126 -0.03782627 25.0020138 -0.04048073 C29.45694922 -0.04438753 33.91187317 -0.05396577 38.36680126 -0.0626936 C49.1279576 -0.08244976 59.88911486 -0.09252419 70.6502848 -0.10142139 C75.72135068 -0.1058066 80.79241551 -0.1111729 85.86348057 -0.11641026 C102.72784521 -0.13342343 119.59220921 -0.14791596 136.45658112 -0.155159 C140.83233993 -0.15706881 145.20809874 -0.15898916 149.58385754 -0.16094494 C150.67139807 -0.16142868 151.7589386 -0.16191242 152.87943491 -0.16241082 C170.48315865 -0.17070491 188.08681431 -0.19603095 205.69050834 -0.22852562 C223.77546372 -0.26163559 241.86038454 -0.27961141 259.94537038 -0.28280324 C270.09460114 -0.28496493 280.24373268 -0.29366344 290.39293385 -0.31926441 C299.03971683 -0.34102543 307.68637648 -0.34899542 316.33318374 -0.33929763 C320.74025199 -0.33476824 325.14706608 -0.33655926 329.55409908 -0.35605907 C333.59928858 -0.37380212 337.64404061 -0.37260392 341.68923547 -0.35716178 C343.14226013 -0.35480244 344.59531599 -0.35902097 346.04829327 -0.37099043 C366.73193094 -0.5306406 386.72093483 5.80305418 402.71349621 19.13422108 C403.63775402 19.89605701 404.56201183 20.65789295 405.51427746 21.44281483 C414.64160726 29.33296853 421.486449 38.26898646 427.02599621 48.94672108 C427.33948009 49.53727283 427.65296398 50.12782459 427.97594738 50.73627186 C435.8058825 66.63893079 435.30275697 83.00299228 435.25105393 100.31567955 C435.24400105 104.14395692 435.2601053 107.97215216 435.27305126 111.80040455 C435.29459345 119.28047756 435.29459 126.76039786 435.28642572 134.24049164 C435.28010449 140.32317969 435.28128211 146.40582348 435.28769779 152.48851109 C435.28859945 153.35696413 435.2895011 154.22541717 435.29043008 155.12018698 C435.29228142 156.88486447 435.29414399 158.64954195 435.29601764 160.41421942 C435.31256115 176.92713015 435.3039054 193.43995521 435.28703206 209.95286076 C435.27232907 225.03930569 435.28697804 240.12555157 435.31580222 255.21197088 C435.34523475 270.73325054 435.35615785 286.25443846 435.34662002 301.7757448 C435.34559755 303.53301738 435.34460294 305.29028998 435.34363651 307.0475626 C435.34316012 307.91200326 435.34268373 308.77644392 435.34219291 309.66707975 C435.34003437 315.73858664 435.3498026 321.81000606 435.36440754 327.88149357 C435.38197219 335.28604539 435.38175404 342.69034333 435.35905588 350.09488536 C435.34795262 353.86780205 435.34466145 357.6402721 435.36335659 361.41316891 C435.38341224 365.51355318 435.36429071 369.61286004 435.3416853 373.71323109 C435.35943889 375.47955605 435.35943889 375.47955605 435.37755114 377.28156435 C435.23864938 389.73709296 431.05575749 399.94144725 422.71349621 409.13422108 C422.1914259 409.74781483 421.66935558 410.36140858 421.13146496 410.99359608 C411.43268706 421.65989197 397.99577131 426.1817577 384.00255871 427.47797108 C368.94027532 427.87697196 355.80823348 423.23997367 344.26427746 413.59906483 C339.71894251 409.20686521 336.00840409 404.20034076 332.23351574 399.15277576 C329.50310203 395.52684249 326.69492025 391.96127877 323.90099621 388.38422108 C322.70651311 386.84813019 321.51250654 385.31166863 320.31896496 383.77484608 C316.78557462 379.22659654 313.24977328 374.68022633 309.71349621 370.13422108 C308.54681827 368.63422984 307.38015161 367.13422984 306.21349621 365.63422108 C305.34724621 364.52047108 305.34724621 364.52047108 304.46349621 363.38422108 C287.83849621 342.00922108 287.83849621 342.00922108 271.21349621 320.63422108 C270.63510998 319.89059315 270.05672375 319.14696522 269.46081066 318.38080311 C268.30305068 316.89223145 267.14533527 315.40362511 265.98766613 313.9149828 C262.9351063 309.98983253 259.88160085 306.06542251 256.82677746 302.14203358 C256.19062511 301.32476795 255.55447277 300.50750233 254.89904308 299.66547108 C253.68057869 298.10014455 252.46184318 296.53502901 251.24279308 294.97015858 C250.69300793 294.26375233 250.14322277 293.55734608 249.57677746 292.82953358 C249.09507092 292.21094471 248.61336437 291.59235584 248.11706066 290.95502186 C246.63143115 289.02776062 245.17195161 287.08209538 243.71349621 285.13422108 C243.70991368 286.31945409 243.70991368 286.31945409 243.70625877 287.52863121 C243.64695876 306.81139498 243.57131357 326.09403238 243.4777813 345.3766613 C243.43293714 354.70184221 243.39349664 364.02698589 243.36706066 373.35223866 C243.34398798 381.48614779 243.31048763 389.61993801 243.26479465 397.75375265 C243.24098664 402.05508806 243.22217693 406.35630661 243.2158823 410.65770626 C243.20977464 414.71826764 243.18957379 418.77853048 243.1592207 422.83898067 C243.15053043 424.31782414 243.14669883 425.79670677 243.14848804 427.27557468 C243.16834073 451.28726044 236.0140519 472.72554911 218.95177746 490.08734608 C201.62339506 506.87601774 180.02568397 512.77473783 156.64928722 512.6517992 C154.88980058 512.65723409 153.13031849 512.66436433 151.37084484 512.67303944 C146.63722292 512.69111483 141.90395375 512.68427087 137.17032647 512.67152309 C132.18771354 512.66131123 127.20512842 512.67081143 122.22251415 512.67706776 C113.8580442 512.6843212 105.49371606 512.67481791 97.12926769 512.65570545 C87.49695001 512.63394834 77.86497124 512.64098902 68.23266178 512.66301107 C59.92301929 512.68123954 51.61347804 512.68368698 43.30382198 512.6732564 C38.35821168 512.66706128 33.41275996 512.66607475 28.46716022 512.67940235 C23.81377431 512.69106909 19.16081963 512.68274043 14.50747967 512.65982533 C12.81294688 512.65459512 11.11837696 512.65595263 9.4238596 512.66487598 C-16.12110899 512.78685795 -38.18319022 504.16949109 -56.95056629 486.55609608 C-70.56950714 472.43612396 -81.38819323 451.79866284 -81.42072487 431.87895203 C-81.42518271 430.61090798 -81.42964056 429.34286393 -81.43423349 428.0363943 C-81.4341442 426.63151847 -81.43395436 425.22664265 -81.43367481 423.82176685 C-81.4369753 422.32742636 -81.44070126 420.83308675 -81.44481629 419.33874828 C-81.45482379 415.23076062 -81.45855109 411.12278758 -81.4612056 407.01478946 C-81.46511249 402.58439412 -81.47469072 398.1540103 -81.48341846 393.72362232 C-81.50317439 383.02179171 -81.51324904 372.31996016 -81.52214625 361.61811587 C-81.52653152 356.57494353 -81.5318978 351.53177224 -81.53713512 346.48860073 C-81.55414829 329.71688238 -81.5686408 312.94516468 -81.57588387 296.17343903 C-81.57779368 291.82174332 -81.57971402 287.47004762 -81.58166981 283.11835194 C-81.58215355 282.03679263 -81.58263729 280.95523333 -81.58313569 279.8408995 C-81.5914297 262.33417348 -81.6167556 244.82751591 -81.64925049 227.32081976 C-81.68236105 209.33530547 -81.70033633 191.34982592 -81.70352811 173.364281 C-81.70568975 163.27094135 -81.71438748 153.17770148 -81.73998928 143.08439159 C-81.76175111 134.48518557 -81.76971989 125.88610356 -81.7600225 117.28687312 C-81.75549334 112.90410754 -81.75728277 108.52159752 -81.77678394 104.13886738 C-81.79452868 100.11588218 -81.79332746 96.09333682 -81.77788665 92.07034621 C-81.77552756 90.62539684 -81.7797445 89.18041608 -81.7917153 87.73551437 C-81.89386126 74.57676317 -79.8377251 61.45186033 -73.47400379 49.75922108 C-72.95471302 48.76801258 -72.95471302 48.76801258 -72.42493153 47.75677967 C-69.46884647 42.22839386 -66.19257586 37.04614861 -62.28650379 32.13422108 C-61.64455067 31.31695545 -61.00259754 30.49968983 -60.34119129 29.65765858 C-46.04560606 12.61900902 -22.41299088 0.03640157 0 0 Z M-6.59900379 77.44672108 C-11.15345953 84.70011355 -10.57162664 92.40588746 -10.5472002 100.7092638 C-10.55022283 102.09895076 -10.55411288 103.48863606 -10.55879277 104.87831843 C-10.56906717 108.68748663 -10.56689238 112.49656064 -10.56261218 116.30573654 C-10.56014394 120.41762715 -10.56916034 124.52949514 -10.57664967 128.64137745 C-10.589396 136.69334488 -10.59119043 144.74527896 -10.5888494 152.79725479 C-10.587066 159.34259076 -10.58881637 165.88791662 -10.59307384 172.43325138 C-10.59366903 173.36500118 -10.59426422 174.29675099 -10.59487745 175.25673563 C-10.59608921 177.14962231 -10.59730334 179.04250899 -10.59851982 180.93539567 C-10.60939513 198.685186 -10.60723292 216.43495733 -10.60113498 234.18474872 C-10.59596594 250.41892876 -10.60722094 266.6530488 -10.6262332 282.88721697 C-10.64561023 299.56082069 -10.65386783 316.23439602 -10.65010995 332.90801108 C-10.64819768 342.26722127 -10.65068791 351.62638039 -10.66482449 360.9855814 C-10.67673753 368.95325496 -10.67814403 376.92084601 -10.66603432 384.8885207 C-10.66014508 388.9524227 -10.65904742 393.01617377 -10.67103672 397.08006573 C-10.68189353 400.80340492 -10.67879472 404.52646714 -10.66477504 408.24979337 C-10.66087745 410.22812924 -10.67167688 412.2064774 -10.68307191 414.18478429 C-10.65931271 425.34947794 -10.65931271 425.34947794 -5.65905935 435.00793588 C-0.22826397 440.24202318 6.07430086 441.38163428 13.48195934 441.39491749 C14.12553021 441.39874304 14.76910107 441.40256858 15.43217409 441.40651006 C17.56851395 441.41675189 19.70458061 441.412865 21.84093761 441.40887928 C23.3806384 441.4132305 24.92033703 441.41841501 26.46003246 441.42436695 C30.62720069 441.43772013 34.79427801 441.43834003 38.96146345 441.43580365 C42.44329568 441.43473203 45.92510965 441.4396219 49.40693796 441.44440907 C57.61948957 441.45549025 65.83199543 441.45594866 74.0445509 441.44989491 C82.51466532 441.44384741 90.98461396 441.45618894 99.45470011 441.47746497 C106.73300155 441.49507452 114.01125016 441.50108359 121.28957212 441.49782723 C125.63410829 441.49601413 129.97852601 441.49865377 134.32304287 441.51254177 C138.40577792 441.52510598 142.48825382 441.5231895 146.57098484 441.51013088 C148.06856975 441.50776295 149.56617284 441.51050757 151.06373692 441.51875401 C153.10880092 441.52920312 155.15393863 441.51932839 157.19900036 441.50844288 C158.34307165 441.50861062 159.48714294 441.50877836 160.66588306 441.50895119 C164.0814262 441.08898094 165.96734486 440.17485429 168.71349621 438.13422108 C170.32501688 434.91117973 169.85614764 431.3910439 169.85152721 427.85019398 C169.85434849 426.98307171 169.85716977 426.11594945 169.86007655 425.22255075 C169.86844942 422.29938117 169.86976313 419.37624934 169.87121105 416.45306873 C169.87587752 414.36389528 169.88102081 412.27472284 169.88660717 410.18555164 C169.89790544 405.67624093 169.90633147 401.1669369 169.9127264 396.65761662 C169.92339514 389.52148691 169.94363911 382.38540483 169.96584606 375.24930286 C170.02780129 354.95298931 170.08172304 334.65667782 170.1148634 314.3602953 C170.13323449 303.15848271 170.16220601 291.95674919 170.2028681 280.75499475 C170.22390453 274.82790266 170.23939054 268.90091011 170.24167538 262.97377872 C170.2438299 257.39070764 170.25978131 251.8078434 170.2860651 246.2248354 C170.29323025 244.18193803 170.29537266 242.13901552 170.29196262 240.09610844 C170.26673746 222.10171167 171.98954004 205.94845184 185.02599621 192.19672108 C197.59316056 180.58644741 212.31119894 176.58428291 229.05724621 176.85687733 C243.16671404 177.43423951 254.80371937 184.53265744 264.71349621 194.13422108 C266.96468404 196.7197405 269.00301912 199.43057046 271.02599621 202.19672108 C272.15798586 203.71035764 273.29081042 205.22337013 274.42443371 206.73578358 C274.97969738 207.48118397 275.53496105 208.22658436 276.1070509 208.99457264 C278.40738083 212.05841634 280.77302308 215.06798872 283.15099621 218.07172108 C287.29702179 223.32633806 291.41865287 228.59930722 295.52599621 233.88422108 C296.1150172 234.64210926 296.7040382 235.39999744 297.31090832 236.18085194 C298.51241251 237.72708876 299.71382803 239.27339449 300.91515636 240.81976795 C303.84648984 244.59237742 306.78008819 248.36322463 309.71349621 252.13422108 C310.88017415 253.63421231 312.0468408 255.13421232 313.21349621 256.63422108 C314.07974621 257.74797108 314.07974621 257.74797108 314.96349621 258.88422108 C334.21349621 283.63422108 334.21349621 283.63422108 335.96593761 285.88763905 C337.1241052 287.37652674 338.28262961 288.86513696 339.44152355 290.35345936 C342.49132127 294.27119049 345.533429 298.19459692 348.56505871 302.12640858 C349.51251965 303.35230701 349.51251965 303.35230701 350.47912121 304.60297108 C351.68714928 306.16630152 352.89300458 307.7313142 354.09630871 309.29828358 C354.64287121 310.00468983 355.18943371 310.71109608 355.75255871 311.43890858 C356.22902843 312.05749744 356.70549816 312.67608631 357.19640636 313.3134203 C358.9203557 315.38249242 360.80048698 317.24027177 362.71349621 319.13422108 C362.80472378 288.26258845 362.87552308 257.39099144 362.91775753 226.51925604 C362.92276042 222.87552997 362.9279377 219.23180417 362.93322277 215.5880785 C362.93427201 214.86267066 362.93532125 214.13726282 362.93640229 213.38987293 C362.95381305 201.64029739 362.9853544 189.89080005 363.02210739 178.14127091 C363.0594982 166.08740937 363.08172811 154.03358881 363.08985019 141.97967166 C363.09484876 135.20820073 363.1068827 128.43689293 363.13641644 121.66548061 C363.16351362 115.29535756 363.17195263 108.92548546 363.16592693 102.55531025 C363.16702971 100.21435083 363.17501718 97.87338324 363.19031811 95.53247356 C363.21015629 92.34157611 363.20545735 89.15163191 363.19451427 85.96071339 C363.20616564 85.02977716 363.21781701 84.09884093 363.22982144 83.13969451 C363.22185725 82.28327414 363.21389306 81.42685378 363.20568752 80.54448128 C363.2072064 79.80820356 363.20872529 79.07192584 363.21029019 78.31333667 C362.47112041 75.07107438 361.09179926 73.42863918 358.71349621 71.13422108 C355.88543901 70.38907097 355.88543901 70.38907097 352.68107414 70.50780869 C351.43733802 70.49538665 350.19360189 70.48296461 348.91217679 70.47016615 C347.52959578 70.48166777 346.14701862 70.49364 344.7644453 70.50603199 C343.29754417 70.50098856 341.83064918 70.4937613 340.3637684 70.48453385 C336.32715371 70.46555458 332.29114246 70.4778769 328.25454271 70.49525678 C323.90334894 70.50859808 319.55224537 70.4932052 315.2010603 70.48143482 C306.67402903 70.4630282 298.14722648 70.47159125 289.62020227 70.48952305 C282.6900392 70.50353521 275.75993833 70.50744482 268.82976246 70.50408077 C267.84429688 70.50360333 266.8588313 70.50312589 265.84350312 70.50263398 C263.84165736 70.50160767 261.83981161 70.50055231 259.83796588 70.49946821 C242.12414828 70.49089469 224.41044121 70.50759579 206.69665051 70.53729725 C189.50487146 70.56612309 172.31325177 70.57322524 155.12145519 70.55780506 C136.40933434 70.54104425 117.6972892 70.5370085 98.98516637 70.55451542 C96.98967001 70.55635983 94.99417364 70.55819456 92.99867725 70.56001949 C92.01681893 70.56093158 91.03496061 70.56184367 90.02334901 70.5627834 C83.1025844 70.56839055 76.18185671 70.56507983 69.26109409 70.55847454 C60.82516902 70.550743 52.38940084 70.55748706 43.95350739 70.58264958 C39.64884265 70.59515032 35.34442221 70.60128432 31.03974819 70.59010792 C27.09857535 70.58006857 23.15788971 70.58851837 19.21677617 70.6116891 C17.791486 70.61684931 16.36615219 70.6152848 14.94088104 70.60629445 C5.83497365 70.55363739 0.03959395 70.80812333 -6.59900379 77.44672108 Z " fill="#30CFAB" transform="translate(81.28650379180908,-0.13422107696533203)"/>
<path d="M0 0 C18.375791 -1.3125565 38.13324359 7.44087325 52 19 C52.92425781 19.76183594 53.84851563 20.52367188 54.80078125 21.30859375 C63.92811105 29.19874745 70.77295279 38.13476539 76.3125 48.8125 C76.62598389 49.40305176 76.93946777 49.99360352 77.26245117 50.60205078 C85.09238629 66.50470971 84.58926076 82.8687712 84.53755772 100.18145847 C84.53050484 104.00973584 84.54660909 107.83793108 84.55955505 111.66618347 C84.58109724 119.14625648 84.58109379 126.62617678 84.57292951 134.10627057 C84.56660828 140.18895861 84.5677859 146.2716024 84.57420158 152.35429001 C84.57510324 153.22274305 84.57600489 154.0911961 84.57693387 154.9859659 C84.57878522 156.75064339 84.58064778 158.51532088 84.58252143 160.27999835 C84.59906494 176.79290908 84.59040919 193.30573413 84.57353585 209.81863968 C84.55883286 224.90508461 84.57348183 239.99133049 84.60230602 255.0777498 C84.63173854 270.59902947 84.64266164 286.12021738 84.63312382 301.64152372 C84.63210134 303.3987963 84.63110673 305.15606891 84.6301403 306.91334152 C84.62966391 307.77778218 84.62918752 308.64222284 84.6286967 309.53285868 C84.62653816 315.60436557 84.63630639 321.67578499 84.65091133 327.74727249 C84.66847598 335.15182432 84.66825783 342.55612225 84.64555968 349.96066429 C84.63445641 353.73358097 84.63116524 357.50605103 84.64986038 361.27894783 C84.66991603 365.37933211 84.6507945 369.47863896 84.62818909 373.57901001 C84.64002482 374.75655999 84.65186054 375.93410997 84.66405493 377.14734328 C84.52515318 389.60287188 80.34226129 399.80722618 72 409 C71.47792969 409.61359375 70.95585937 410.2271875 70.41796875 410.859375 C60.71919085 421.52567089 47.2822751 426.04753662 33.2890625 427.34375 C18.22677911 427.74275088 5.09473727 423.10575259 -6.44921875 413.46484375 C-10.99455369 409.07264413 -14.70509212 404.06611968 -18.47998047 399.01855469 C-21.21039418 395.39262142 -24.01857596 391.8270577 -26.8125 388.25 C-28.0069831 386.71390912 -29.20098967 385.17744756 -30.39453125 383.640625 C-33.92792158 379.09237546 -37.46372293 374.54600526 -41 370 C-42.16667794 368.50000877 -43.3333446 367.00000876 -44.5 365.5 C-45.0775 364.7575 -45.655 364.015 -46.25 363.25 C-62.875 341.875 -62.875 341.875 -79.5 320.5 C-80.07838623 319.75637207 -80.65677246 319.01274414 -81.25268555 318.24658203 C-82.41044553 316.75801037 -83.56816094 315.26940403 -84.72583008 313.78076172 C-87.77838991 309.85561145 -90.83189535 305.93120143 -93.88671875 302.0078125 C-94.84094727 300.78191406 -94.84094727 300.78191406 -95.81445312 299.53125 C-97.03291752 297.96592348 -98.25165303 296.40080794 -99.47070312 294.8359375 C-100.29538086 293.77632813 -100.29538086 293.77632813 -101.13671875 292.6953125 C-101.61842529 292.07672363 -102.10013184 291.45813477 -102.59643555 290.82080078 C-104.08206505 288.89353954 -105.5415446 286.9478743 -107 285 C-107.00238835 285.79015534 -107.00477671 286.58031069 -107.00723743 287.39441013 C-107.06653745 306.6771739 -107.14218264 325.9598113 -107.23571491 345.24244022 C-107.28055907 354.56762113 -107.31999957 363.89276481 -107.34643555 373.21801758 C-107.36950823 381.35192672 -107.40300858 389.48571693 -107.44870156 397.61953157 C-107.47250957 401.92086699 -107.49131928 406.22208553 -107.49761391 410.52348518 C-107.50372157 414.58404657 -107.52392241 418.6443094 -107.55427551 422.7047596 C-107.56296578 424.18360306 -107.56679738 425.66248569 -107.56500816 427.14135361 C-107.54515547 451.15303937 -114.69944431 472.59132803 -131.76171875 489.953125 C-144.86150887 502.64490835 -163.94547538 512.20252369 -182.4375 512.25 C-183.95935126 512.18797404 -185.4811334 512.11367817 -187 512 C-187.495 510.515 -187.495 510.515 -188 509 C-186.68 509.33 -185.36 509.66 -184 510 C-183.27677339 505.45934228 -182.87707539 501.110134 -182.88647461 496.51391602 C-182.88655014 495.27315811 -182.88662567 494.03240021 -182.88670349 492.75404358 C-182.89180846 491.42066405 -182.89702443 490.08728494 -182.90234375 488.75390625 C-182.90421153 487.37385611 -182.90563373 485.99380531 -182.90663147 484.61375427 C-182.91042832 481.00198498 -182.92023406 477.39025665 -182.93133545 473.77850342 C-182.94161082 470.08476312 -182.94614215 466.39101613 -182.95117188 462.69726562 C-182.96185918 455.46482519 -182.97890112 448.23241836 -183 441 C-184.32 440.67 -185.64 440.34 -187 440 C-186.0409375 439.566875 -186.0409375 439.566875 -185.0625 439.125 C-182.84793921 438.17176549 -182.84793921 438.17176549 -182 436 C-181.89849428 433.2305256 -181.85835457 430.48587467 -181.86196899 427.7159729 C-181.85914771 426.84885064 -181.85632643 425.98172837 -181.85341966 425.08832967 C-181.84504679 422.1651601 -181.84373308 419.24202826 -181.84228516 416.31884766 C-181.83761868 414.2296742 -181.8324754 412.14050176 -181.82688904 410.05133057 C-181.81559077 405.54201986 -181.80716473 401.03271582 -181.80076981 396.52339554 C-181.79010107 389.38726584 -181.7698571 382.25118375 -181.74765015 375.11508179 C-181.68569492 354.81876823 -181.63177316 334.52245675 -181.59863281 314.22607422 C-181.58026171 303.02426163 -181.5512902 291.82252811 -181.5106281 280.62077367 C-181.48959168 274.69368158 -181.47410567 268.76668903 -181.47182083 262.83955765 C-181.46966631 257.25648656 -181.4537149 251.67362233 -181.42743111 246.09061432 C-181.42026596 244.04771695 -181.41812355 242.00479445 -181.42153358 239.96188736 C-181.44733135 221.55902272 -179.52861258 205.55388693 -166.1875 191.5625 C-153.42925072 179.67150332 -138.77396853 175.44401172 -121.65625 175.72265625 C-107.36948076 176.30727364 -94.6187758 183.71262051 -85 194 C-81.02168295 198.82303719 -77.31726293 203.85872723 -73.59033203 208.87646484 C-71.29815091 211.93716356 -68.93636841 214.93999191 -66.5625 217.9375 C-62.41637609 223.19203873 -58.29484266 228.46508701 -54.1875 233.75 C-53.598479 234.50788818 -53.00945801 235.26577637 -52.40258789 236.04663086 C-51.20108369 237.59286768 -49.99966818 239.13917341 -48.79833984 240.68554688 C-45.86700637 244.45815634 -42.93340802 248.22900355 -40 252 C-38.83332206 253.49999123 -37.6666554 254.99999124 -36.5 256.5 C-35.9225 257.2425 -35.345 257.985 -34.75 258.75 C-28.33333333 267 -21.91666667 275.25 -15.5 283.5 C-14.9215332 284.2437085 -14.34306641 284.98741699 -13.74707031 285.75366211 C-12.59003382 287.24134975 -11.43313096 288.72914132 -10.27636719 290.21704102 C-7.21349308 294.1563191 -4.14776059 298.0933315 -1.078125 302.02734375 C-0.43746094 302.84912109 0.20320312 303.67089844 0.86328125 304.51757812 C2.09420127 306.09636684 3.32593448 307.67452198 4.55859375 309.25195312 C5.11160156 309.96158203 5.66460937 310.67121094 6.234375 311.40234375 C6.72131836 312.02616943 7.20826172 312.64999512 7.70996094 313.29272461 C8.86405314 314.82008396 9.93810686 316.40716029 11 318 C11.11444476 279.153619 11.20254855 240.3072634 11.25532665 201.46074793 C11.26158018 196.87454782 11.26805179 192.28834805 11.2746582 187.70214844 C11.27596976 186.7891188 11.27728131 185.87608916 11.2786326 184.93539196 C11.30038906 170.15179885 11.33981191 155.36830296 11.38576398 140.58476752 C11.43252194 125.41544849 11.460294 110.24618038 11.47044247 95.07679224 C11.47730301 85.71645065 11.49897108 76.35638384 11.53958233 66.99612683 C11.56601254 60.57740566 11.57400037 54.15882654 11.56750689 47.74005491 C11.56430439 44.03668804 11.56921256 40.33380135 11.59602737 36.63051987 C11.62490453 32.61302612 11.61493347 28.5965535 11.60127258 24.57897949 C11.61583679 23.41165205 11.630401 22.2443246 11.64540654 21.04162359 C11.58265593 14.22244332 10.76692192 9.13221775 6 4 C2.88279249 1.97787952 2.88279249 1.97787952 0 1 C0 0.67 0 0.34 0 0 Z " fill="#62F555" transform="translate(432,0)"/>
<path d="M0 0 C0.33 0 0.66 0 1 0 C1.04575258 35.98443439 1.08100656 71.9688637 1.10213066 107.95332117 C1.10463215 112.19918682 1.10722079 116.44505241 1.10986328 120.69091797 C1.11065021 121.95886008 1.11065021 121.95886008 1.11145304 123.25241718 C1.12016163 136.94906011 1.1359341 150.64568629 1.15430559 164.34231928 C1.17299203 178.39065171 1.18411406 192.43897536 1.18817699 206.48731971 C1.19092466 215.15968174 1.19961081 223.83199643 1.21583293 232.5043439 C1.22638431 238.44691635 1.22960483 244.38946426 1.22700275 250.33204541 C1.22571858 253.76337494 1.22772191 257.19462162 1.23841095 260.62593651 C1.24830688 264.34242717 1.2459884 268.05871247 1.24050903 271.77520752 C1.24633472 272.86469452 1.2521604 273.95418152 1.25816262 275.07668328 C1.25418052 276.07044842 1.25019842 277.06421357 1.24609566 278.0880928 C1.2468551 278.94626075 1.24761454 279.8044287 1.24839699 280.68860173 C0.97878848 283.19737867 0.26049683 284.83263537 -1 287 C-1.66 286.67 -2.32 286.34 -3 286 C-2.83734146 285.30409256 -2.67468292 284.60818512 -2.50709534 283.89118958 C-1.96120494 280.77881107 -1.88003963 277.90054034 -1.88647461 274.7409668 C-1.88655014 273.50005783 -1.88662567 272.25914886 -1.88670349 270.9806366 C-1.89180928 269.63683023 -1.89702526 268.29302429 -1.90234375 266.94921875 C-1.90421035 265.56631013 -1.90563311 264.18340085 -1.90663147 262.80049133 C-1.91043763 259.17225294 -1.92025157 255.544055 -1.93133545 251.91583252 C-1.94159055 248.20886787 -1.94613785 244.50189664 -1.95117188 240.79492188 C-1.96187565 233.52992954 -1.9789291 226.26497045 -2 219 C-3.32 218.67 -4.64 218.34 -6 218 C-5.0409375 217.566875 -5.0409375 217.566875 -4.0625 217.125 C-1.84793921 216.17176549 -1.84793921 216.17176549 -1 214 C-0.89194527 211.20388826 -0.84509008 208.43201747 -0.84178162 205.63522339 C-0.83684364 204.75963433 -0.83190566 203.88404528 -0.82681805 202.98192322 C-0.81138821 200.03075679 -0.80306762 197.07961221 -0.79467773 194.12841797 C-0.78510352 192.01977342 -0.77509371 189.9111308 -0.76467896 187.80249023 C-0.73757435 182.06313464 -0.71659493 176.32377078 -0.69667697 170.58438635 C-0.6748516 164.59189683 -0.64744608 158.59943296 -0.62062073 152.60696411 C-0.57064708 141.25268561 -0.52572562 129.89839292 -0.48259836 118.54408658 C-0.43326585 105.62044809 -0.37833297 92.69683534 -0.32291877 79.77322173 C-0.20902703 53.18217181 -0.1022037 26.59109723 0 0 Z " fill="#54E867" transform="translate(251,222)"/>
<path d="M0 0 C1.65 1.32 3.3 2.64 5 4 C4.67 4.66 4.34 5.32 4 6 C3.67 5.67 3.34 5.34 3 5 C2.99576806 5.79752969 2.99153612 6.59505938 2.98717594 7.41675663 C2.88383225 26.83018326 2.77518893 46.24357364 2.66066074 65.6569376 C2.60540315 75.04512366 2.55193352 84.43331353 2.50268555 93.8215332 C2.45975216 102.00512503 2.4134513 110.18868973 2.36312145 118.37223953 C2.33659415 122.70459277 2.31174317 127.03694089 2.29092598 131.36932564 C2.27126764 135.44945659 2.24709703 139.52953625 2.21950912 143.60962105 C2.2101872 145.10473697 2.20249473 146.59986412 2.19658089 148.09499741 C2.18823648 150.14200562 2.17393785 152.18889208 2.15821838 154.2358551 C2.15176583 155.3798002 2.14531328 156.52374529 2.1386652 157.70235538 C1.99204099 161.18927597 1.54863626 164.55530125 1 168 C-1.17605548 164.47391633 -1.2449225 161.64758228 -1.23377991 157.54760742 C-1.23478319 156.90181071 -1.23578647 156.256014 -1.23682016 155.5906477 C-1.23777203 153.4287981 -1.22443513 151.26727443 -1.21118164 149.10546875 C-1.2089802 147.55473936 -1.2076749 146.00400847 -1.2071991 144.45327759 C-1.204266 141.11493783 -1.19501967 137.77669602 -1.18089485 134.43838501 C-1.158635 129.16099155 -1.15053973 123.88363449 -1.14439392 118.60620117 C-1.13301176 110.25998657 -1.11228461 101.91382586 -1.08749622 93.56764126 C-1.0431744 78.61874304 -1.00998988 63.66982602 -0.98725218 48.72087955 C-0.97883924 43.47341363 -0.96480848 38.22600102 -0.94627964 32.9785614 C-0.93564221 29.71593992 -0.92905485 26.45331894 -0.92347908 23.19068527 C-0.92000644 21.67655304 -0.91479004 20.16242366 -0.90771103 18.64830399 C-0.89826692 16.58298049 -0.89498416 14.51773481 -0.89320374 12.45239258 C-0.88968431 11.29612869 -0.88616488 10.13986481 -0.8825388 8.94856262 C-0.98246542 6.44016082 -1.26302976 4.38532124 -2 2 C-1.34 2 -0.68 2 0 2 C0 1.34 0 0.68 0 0 Z " fill="#63E563" transform="translate(322,280)"/>
<path d="M0 0 C3.10189898 2.56485379 6.08467264 5.22550971 9 8 C8.67 8.66 8.34 9.32 8 10 C5.95880212 8.38405168 3.95927063 6.7143618 2 5 C2 4.34 2 3.68 2 3 C1.12214844 2.56300781 1.12214844 2.56300781 0.2265625 2.1171875 C-1.1162842 1.44340828 -2.45591446 0.76308375 -3.7890625 0.0703125 C-12.99820052 -4.67141389 -20.5728802 -7.6527739 -31.0625 -7.375 C-31.99126953 -7.37371094 -32.92003906 -7.37242187 -33.87695312 -7.37109375 C-42.03779173 -7.26800947 -49.40975821 -6.02222597 -56.875 -2.625 C-57.77992188 -2.22539062 -58.68484375 -1.82578125 -59.6171875 -1.4140625 C-62.16942196 0.10054221 -63.30302857 1.61204619 -65 4 C-65.66 4 -66.32 4 -67 4 C-67.10634766 4.90492188 -67.10634766 4.90492188 -67.21484375 5.828125 C-68.29615924 8.81922654 -69.76938457 9.33377246 -72.5625 10.75 C-73.38878906 11.17796875 -74.21507812 11.6059375 -75.06640625 12.046875 C-75.70449219 12.36140625 -76.34257812 12.6759375 -77 13 C-72.8099254 3.57233215 -63.2828004 -2.35683263 -54.09375 -6.22265625 C-35.77676214 -13.0915267 -16.06252653 -11.71557216 0 0 Z " fill="#47D67C" transform="translate(338,186)"/>
<path d="M0 0 C0.66 0.33 1.32 0.66 2 1 C2.04634424 9.79699834 2.08187981 18.59395464 2.10362434 27.39104843 C2.11406072 31.4759121 2.12821724 35.56069222 2.15087891 39.64550781 C2.17261251 43.58771842 2.18456973 47.52984867 2.18975449 51.47211456 C2.19344931 52.97600825 2.20066437 54.47989755 2.21146011 55.98375702 C2.22598206 58.09050493 2.22797767 60.19692101 2.22705078 62.30371094 C2.231492 63.50284119 2.23593323 64.70197144 2.24050903 65.93743896 C2.00997957 68.87292348 1.53985196 70.52969667 0 73 C-0.66 72.67 -1.32 72.34 -2 72 C-1.83734146 71.30409256 -1.67468292 70.60818512 -1.50709534 69.89118958 C-0.96120494 66.77881107 -0.88003963 63.90054034 -0.88647461 60.7409668 C-0.88655014 59.50005783 -0.88662567 58.25914886 -0.88670349 56.9806366 C-0.89180928 55.63683023 -0.89702526 54.29302429 -0.90234375 52.94921875 C-0.90421035 51.56631013 -0.90563311 50.18340085 -0.90663147 48.80049133 C-0.91043763 45.17225294 -0.92025157 41.544055 -0.93133545 37.91583252 C-0.94159055 34.20886787 -0.94613785 30.50189664 -0.95117188 26.79492188 C-0.96187565 19.52992954 -0.9789291 12.26497045 -1 5 C-2.32 4.67 -3.64 4.34 -5 4 C-4.360625 3.71125 -3.72125 3.4225 -3.0625 3.125 C-0.84793921 2.17176549 -0.84793921 2.17176549 0 0 Z " fill="#39DF55" transform="translate(250,436)"/>
<path d="M0 0 C0 2.92828926 -0.13970066 5.20402714 -1 8 C-2.9375 9.0625 -2.9375 9.0625 -5 10 C-6.13350534 12.01669827 -6.13350534 12.01669827 -7 14 C-7.99 14.495 -7.99 14.495 -9 15 C-9 15.99 -9 16.98 -9 18 C-11.5 19.6875 -11.5 19.6875 -14 21 C-11.11200696 13.01889608 -5.51775302 6.3537762 0 0 Z " fill="#38BDEA" transform="translate(24,26)"/>
<path d="M0 0 C0.57492187 0.24105469 1.14984375 0.48210937 1.7421875 0.73046875 C1.1028125 0.97796875 0.4634375 1.22546875 -0.1953125 1.48046875 C-0.8759375 1.89296875 -1.5565625 2.30546875 -2.2578125 2.73046875 C-2.37125 3.35953125 -2.4846875 3.98859375 -2.6015625 4.63671875 C-3.2578125 6.73046875 -3.2578125 6.73046875 -5.32421875 8.21484375 C-6.14792969 8.6325 -6.97164063 9.05015625 -7.8203125 9.48046875 C-9.05974609 10.12242187 -9.05974609 10.12242187 -10.32421875 10.77734375 C-10.96230469 11.091875 -11.60039062 11.40640625 -12.2578125 11.73046875 C-10.79155394 8.38225977 -8.92122803 6.03780516 -6.3828125 3.41796875 C-5.36574219 2.34095703 -5.36574219 2.34095703 -4.328125 1.2421875 C-2.2578125 -0.26953125 -2.2578125 -0.26953125 0 0 Z " fill="#51E973" transform="translate(273.2578125,187.26953125)"/>
<path d="M0 0 C-3.08809695 1.76462683 -4.23312136 2 -8 2 C-8.33 3.32 -8.66 4.64 -9 6 C-9.66 5.34 -10.32 4.68 -11 4 C-11.33 4.66 -11.66 5.32 -12 6 C-12.99 5.67 -13.98 5.34 -15 5 C-18.15020361 5.88319294 -18.15020361 5.88319294 -21 7 C-21 6.34 -21 5.68 -21 5 C-18.77236012 4.18309823 -16.5430514 3.37138128 -14.3125 2.5625 C-13.68666016 2.33240234 -13.06082031 2.10230469 -12.41601562 1.86523438 C-3.04222074 -1.52111037 -3.04222074 -1.52111037 0 0 Z " fill="#39BEE7" transform="translate(72,2)"/>
<path d="M0 0 C3.465 1.485 3.465 1.485 7 3 C7 3.66 7 4.32 7 5 C7.66 5 8.32 5 9 5 C9.33 7.64 9.66 10.28 10 13 C6.40523299 9.50794062 3.07973809 5.95966325 0 2 C0 1.34 0 0.68 0 0 Z " fill="#5DEC5F" transform="translate(359,327)"/>
<path d="M0 0 C0.97608217 2.92824652 1.08226668 4.95613276 1 8 C0.34 8 -0.32 8 -1 8 C-0.67 9.32 -0.34 10.64 0 12 C-0.99 12.33 -1.98 12.66 -3 13 C-3 14.65 -3 16.3 -3 18 C-3.99 18 -4.98 18 -6 18 C-5.18957506 15.37434281 -4.37675813 12.74946834 -3.5625 10.125 C-3.33240234 9.37863281 -3.10230469 8.63226563 -2.86523438 7.86328125 C-1.11328125 2.2265625 -1.11328125 2.2265625 0 0 Z " fill="#32C3E1" transform="translate(7,51)"/>
<path d="M0 0 C3.59634744 3.49359465 6.83451967 7.11098131 10 11 C9.67 11.66 9.34 12.32 9 13 C4.6180876 11.53936253 2.05288059 7.98797296 0 4 C0 2.68 0 1.36 0 0 Z " fill="#4EDF6B" transform="translate(372,228)"/>
<path d="M0 0 C0.66 0.33 1.32 0.66 2 1 C2 7.27 2 13.54 2 20 C1.67 20 1.34 20 1 20 C0.67 15.05 0.34 10.1 0 5 C-1.65 5 -3.3 5 -5 5 C-3.35 3.35 -1.7 1.7 0 0 Z " fill="#43DE64" transform="translate(250,436)"/>
<path d="M0 0 C5.92863717 1.16651426 11.38798394 2.75519358 17 5 C17 5.33 17 5.66 17 6 C15.56163249 5.88541307 14.12429034 5.75790884 12.6875 5.625 C11.88699219 5.55539063 11.08648437 5.48578125 10.26171875 5.4140625 C8 5 8 5 5 3 C3.34450469 2.61500109 1.6777567 2.27206865 0 2 C0 1.34 0 0.68 0 0 Z " fill="#5FE868" transform="translate(448,2)"/>
<path d="M0 0 C3.91939465 3.80411834 7.49102731 7.81576108 11 12 C10.67 12.66 10.34 13.32 10 14 C8.29115995 12.37660195 6.62553283 10.70680947 5 9 C5 8.34 5 7.68 5 7 C4.34 7 3.68 7 3 7 C0 2.61538462 0 2.61538462 0 0 Z " fill="#4AD774" transform="translate(347,196)"/>
<path d="M0 0 C0.66 0 1.32 0 2 0 C2 0.66 2 1.32 2 2 C2.66 2 3.32 2 4 2 C4 2.99 4 3.98 4 5 C4.99 5 5.98 5 7 5 C8.06775224 6.96466413 9.06553465 8.96855359 10 11 C9.67 11.66 9.34 12.32 9 13 C7.4941255 11.21326795 5.9954515 9.42046492 4.5 7.625 C3.6646875 6.62726563 2.829375 5.62953125 1.96875 4.6015625 C0 2 0 2 0 0 Z " fill="#5CE962" transform="translate(331,291)"/>
<path d="M0 0 C0.66 1.32 1.32 2.64 2 4 C1.21654285 5.17219543 0.42297164 6.33763668 -0.375 7.5 C-0.81585938 8.1496875 -1.25671875 8.799375 -1.7109375 9.46875 C-2.13632812 9.9740625 -2.56171875 10.479375 -3 11 C-3.66 11 -4.32 11 -5 11 C-3.77472971 6.94718288 -2.30119506 3.55639236 0 0 Z " fill="#5BE868" transform="translate(260,199)"/>
<path d="M0 0 C4.455 2.97 4.455 2.97 9 6 C8.67 7.32 8.34 8.64 8 10 C4.82537057 7.59757773 2.14248259 5.38286724 0 2 C0 1.34 0 0.68 0 0 Z " fill="#36D292" transform="translate(19,478)"/>
<path d="M0 0 C0.66 0.33 1.32 0.66 2 1 C0.88121617 2.17262904 -0.24523051 3.33795138 -1.375 4.5 C-2.00148438 5.1496875 -2.62796875 5.799375 -3.2734375 6.46875 C-5 8 -5 8 -7 8 C-7.33 7.01 -7.66 6.02 -8 5 C-6.71475739 4.13619741 -5.42157581 3.28419631 -4.125 2.4375 C-3.04605469 1.72400391 -3.04605469 1.72400391 -1.9453125 0.99609375 C-1.30335937 0.66738281 -0.66140625 0.33867187 0 0 Z " fill="#3ABBE7" transform="translate(45,10)"/>
<path d="M0 0 C-0.33 0.33 -0.66 0.66 -1 1 C0.65 1.33 2.3 1.66 4 2 C4 2.33 4 2.66 4 3 C0.37 3 -3.26 3 -7 3 C-7.33 2.01 -7.66 1.02 -8 0 C-2.25 -1.125 -2.25 -1.125 0 0 Z " fill="#49EA56" transform="translate(252,509)"/>
<path d="M0 0 C2.96404505 2.80804268 5.44499019 5.18315774 7 9 C5.02 8.34 3.04 7.68 1 7 C0.67 4.69 0.34 2.38 0 0 Z " fill="#48DB64" transform="translate(400,264)"/>
<path d="M0 0 C1.45880109 0.14107747 2.91703551 0.28802415 4.375 0.4375 C5.59316406 0.55931641 5.59316406 0.55931641 6.8359375 0.68359375 C9 1 9 1 11 2 C11 2.99 11 3.98 11 5 C6.87248551 4.39301257 3.6678852 2.96189209 0 1 C0 0.67 0 0.34 0 0 Z " fill="#5DE860" transform="translate(435,419)"/>
<path d="M0 0 C0.66 0.33 1.32 0.66 2 1 C1.67 2.65 1.34 4.3 1 6 C-1.66666667 6 -4.33333333 6 -7 6 C-4.69 4.02 -2.38 2.04 0 0 Z " fill="#39BEE8" transform="translate(33,18)"/>
<path d="M0 0 C2.97 0 5.94 0 9 0 C8.67 1.65 8.34 3.3 8 5 C5.36 3.68 2.72 2.36 0 1 C0 0.67 0 0.34 0 0 Z " fill="#55EF6C" transform="translate(432,0)"/>
<path d="M0 0 C0.66 0 1.32 0 2 0 C2 0.99 2 1.98 2 3 C2.99 3 3.98 3 5 3 C5 5.64 5 8.28 5 11 C2.77174356 8.77174356 2.30760631 7.34238372 1.375 4.375 C1.11460938 3.55773437 0.85421875 2.74046875 0.5859375 1.8984375 C0.39257812 1.27195312 0.19921875 0.64546875 0 0 Z " fill="#35D49A" transform="translate(3,450)"/>
<path d="M0 0 C0.33 0 0.66 0 1 0 C1.08131463 1.43655854 1.13933559 2.8744483 1.1875 4.3125 C1.23970703 5.51326172 1.23970703 5.51326172 1.29296875 6.73828125 C0.93801608 9.47851584 0.10633718 10.29171079 -2 12 C-1.85831863 10.56208484 -1.71148957 9.1246763 -1.5625 7.6875 C-1.48128906 6.88699219 -1.40007812 6.08648437 -1.31640625 5.26171875 C-1 3 -1 3 0 0 Z " fill="#5EEA6A" transform="translate(254,210)"/>
<path d="M0 0 C0 3 0 3 -1.3125 4.38671875 C-2.875 5.59114583 -4.4375 6.79557292 -6 8 C-5.8125 5.125 -5.8125 5.125 -5 2 C-2.4375 0.625 -2.4375 0.625 0 0 Z " fill="#58E965" transform="translate(304,483)"/>
<path d="M0 0 C3.34249629 0.59687434 5.46436342 1.73603877 8 4 C8 4.66 8 5.32 8 6 C4.63408134 4.55746343 2.48952921 2.66735273 0 0 Z " fill="#33CD88" transform="translate(27,488)"/>
<path d="M0 0 C2.125 0.375 2.125 0.375 4 1 C2.824375 1.928125 2.824375 1.928125 1.625 2.875 C-0.96837647 4.89858661 -0.96837647 4.89858661 -3 7 C-2.25 2.25 -2.25 2.25 0 0 Z " fill="#3DC0CF" transform="translate(76,73)"/>
<path d="M0 0 C0.97608217 2.92824652 1.08226668 4.95613276 1 8 C-0.32 8.33 -1.64 8.66 -3 9 C-2.01 6.03 -1.02 3.06 0 0 Z " fill="#3DBDE7" transform="translate(7,51)"/>
</svg>
